<svg width="34" height="24" viewBox="0 0 34 24" fill="none" xmlns="http://www.w3.org/2000/svg">
<rect x="0.5" y="0.5" width="33" height="23" rx="3.5" fill="white" stroke="#D9D9D9"/>
<path d="M22.4177 10.278C23.4085 9.85746 23.9726 8.95318 23.6776 8.25826C23.3826 7.56334 22.3403 7.34093 21.3495 7.76149C20.3587 8.18205 19.7947 9.08633 20.0897 9.78125C20.3846 10.4762 21.4269 10.6986 22.4177 10.278Z" fill="#C24626"/>
<path d="M18.9731 13.0385L16.2077 13.0521L15.9234 13.7694H16.2302C16.2302 13.7694 16.4016 13.828 16.334 14.0085L15.2783 16.6476H16.3249L16.7355 15.6596H17.9986C17.9986 15.6596 18.6122 15.6461 18.955 15.0551L19.5235 13.643C19.519 13.643 19.6994 13.1648 18.9731 13.0385ZM18.3235 14.0536L18.0257 14.7258C18.0257 14.7258 17.9671 14.9062 17.6829 14.9062L17.0107 14.8837L17.4438 13.8009H18.1701C18.1746 13.8009 18.3776 13.8009 18.3235 14.0536ZM22.519 14.5092L23.11 13.0521H20.9265C20.9265 13.0521 20.0513 13.1423 19.8122 13.7107L19.3475 14.825C19.3475 14.825 19.122 15.5513 19.7445 15.61H22.5641L22.8619 14.9062C22.8619 14.9062 22.325 14.9739 22.519 14.5092ZM21.3461 14.9062H20.5836C20.5836 14.9062 20.4257 14.8837 20.5024 14.6085C20.5024 14.6085 20.7415 13.7874 21.0844 13.7648L21.7566 13.7874L21.3461 14.9062Z" fill="#262D72"/>
<path d="M26.304 13.81L25.916 13.3949C25.7536 13.246 25.9295 13.1017 25.9295 13.1017L26.119 12.9663L25.6318 12.4475C24.1746 13.1784 22.9882 13.9904 22.9882 13.9904C22.7626 14.2656 22.9746 14.5814 22.9746 14.5814L23.8949 15.5378C23.9852 15.7995 23.719 15.8536 23.719 15.8536L23.0649 15.8446L22.74 16.5528C22.907 16.5528 23.9085 16.5393 23.9085 16.5393C24.8153 16.0837 25.0679 15.7183 25.0679 15.7183C25.2303 15.4927 25.0589 15.2626 25.0589 15.2626C24.9371 15.1137 25.1356 15.0506 25.1356 15.0506C25.8889 14.6355 26.2408 14.2972 26.2408 14.2972C26.4348 14.0626 26.304 13.81 26.304 13.81ZM25.2032 14.1889L24.4137 14.6897C24.2919 14.7528 24.2243 14.6671 24.2243 14.6671L23.9085 14.3062C23.8228 14.2024 23.9581 14.0445 23.9581 14.0445L24.5626 13.6566C24.8288 13.5438 24.9371 13.6656 24.9371 13.6656L25.2032 13.9273C25.298 14.0716 25.2032 14.1889 25.2032 14.1889ZM30.2108 13.9002C30.2108 13.9002 29.4213 13.1197 29.2318 13.043C29.2318 13.043 28.8078 12.8536 28.4018 13.0521C28.4018 13.0521 27.1657 13.6701 26.5882 14.0581C26.5882 14.0581 26.2318 14.3333 26.3626 14.6852C26.3626 14.6852 27.0935 15.5378 27.319 15.6416C27.319 15.6416 27.5987 15.8401 28.095 15.6912C28.095 15.6912 29.5025 15.1498 30.2063 14.4821C30.2063 14.4731 30.4183 14.234 30.2108 13.9002ZM29.0469 14.419C29.0379 14.4551 28.3341 14.825 28.3341 14.825C28.1085 14.9468 27.9461 14.8385 27.9461 14.8385C27.8333 14.7799 27.6078 14.5047 27.6078 14.5047C27.522 14.4145 27.6168 14.2791 27.6168 14.2791C27.7566 14.1393 28.3566 13.837 28.3566 13.837C28.4965 13.7468 28.7221 13.8596 28.7221 13.8596L29.0469 14.1528C29.1777 14.2791 29.0469 14.419 29.0469 14.419Z" fill="#262D72"/>
<path d="M15.77 13.0521H14.7279C14.7279 13.0521 14.0648 14.6626 14.0016 14.8791C14.0016 14.8791 13.8753 15.2716 14.0648 15.4295C14.0648 15.4295 14.2678 15.6325 14.4933 15.6325L15.2197 15.6235L15.5309 14.9062H15.3009C15.3009 14.9062 15.0347 14.8521 15.1475 14.5949L15.77 13.0521ZM15.2918 12.0145C15.2918 12.0145 15.6798 11.8881 15.8964 12.037C15.8964 12.037 16.1761 12.2039 15.9505 12.5062C15.9505 12.5062 15.7746 12.7994 15.2873 12.8085C15.2873 12.8085 14.8813 12.8581 14.8497 12.5197C14.8542 12.5197 14.8362 12.1769 15.2918 12.0145ZM13.9384 13.2145C13.9384 13.2145 13.7986 13.0611 13.4467 13.0295L10.7941 13.0385L10.5189 13.7694H10.7444C10.7444 13.7694 10.9926 13.7694 10.8482 14.1303L9.86472 16.6476L10.8978 16.6566L11.2768 15.6235L12.6211 15.6325C12.6211 15.6325 13.0091 15.6731 13.361 15.2446C13.361 15.2446 13.8978 14.3919 14.0377 13.7513C14.0377 13.7513 14.173 13.3994 13.9384 13.2145ZM12.8648 14.0671C12.8648 14.207 12.5986 14.7122 12.5986 14.7122C12.4632 14.8972 12.2467 14.8972 12.2467 14.8972H11.579L12.0302 13.8055H12.7249C12.964 13.8145 12.8648 14.0671 12.8648 14.0671ZM9.90984 14.4822L10.4918 13.0385L8.39403 13.0295C8.07824 13.0295 7.72635 13.1919 7.72635 13.1919C7.32033 13.3904 7.2256 13.6701 7.2256 13.6701C7.07221 13.9002 6.75642 14.7979 6.75642 14.7979C6.57145 15.2401 6.75642 15.398 6.75642 15.398C6.93236 15.6461 7.27071 15.6371 7.27071 15.6371L9.95946 15.6461L10.2527 14.9378L9.92337 14.8837C9.76096 14.7979 9.90984 14.4822 9.90984 14.4822ZM8.72787 14.8837L8.03312 14.8972C8.03312 14.8972 7.78049 14.8837 7.89327 14.5543C7.89327 14.5543 8.01959 14.1122 8.15944 13.9633C8.15944 13.9633 8.24967 13.7964 8.52486 13.7964L9.1384 13.81L8.72787 14.8837ZM7.16695 13.0476L6.85567 13.7919H6.03461C6.03461 13.7919 5.80904 13.7513 5.66919 14.0671L5.05565 15.628L4 15.6416L5.02858 13.0385L7.16695 13.0476Z" fill="#C24626"/>
<path d="M21.5806 7.08811C21.5806 7.08811 20.5611 7.43097 20.2137 7.83248C20.2137 7.83248 19.6317 8.35128 19.4377 9.17685C19.4377 9.17685 19.3475 9.9528 19.7265 10.3318C19.7265 10.3318 20.0784 10.7829 20.4212 10.9002C20.4212 10.9002 20.9129 11.1032 21.6438 11.0355C21.6438 11.0355 22.8664 10.8821 23.507 10.1784C23.507 10.1784 23.1957 10.8325 22.2122 11.5002C22.2122 11.5002 21.5355 11.9919 20.4528 12.24C20.4528 12.24 19.4603 12.5017 18.5941 12.2806C18.5941 12.2806 17.7099 12.1047 17.2949 11.5769C17.2949 11.5769 16.8437 11.1348 16.8392 10.4987C16.8392 10.4987 16.7851 9.79039 17.367 8.98738C17.367 8.98738 17.9671 8.25654 18.5625 7.90466C18.5625 7.90466 19.343 7.46255 19.934 7.28661C19.943 7.28661 20.737 7.03397 21.5806 7.08811Z" fill="#262D72"/>
</svg>
